<svg width="1440" height="1391" viewBox="0 0 1440 1391" fill="none" xmlns="http://www.w3.org/2000/svg">
<path d="M0 135.5L1440 0V907.221V943L1435.5 955L1429.5 968.5L1416 983L1394.5 996.5L1347 1023.5L1299 1049L1208 1089.5L1117.5 1122L1065.5 1137.5L1017.5 1150.5L977 1159L927 1168L879.5 1176L830.5 1181.5L782.5 1185.5L740 1188L691.5 1190L643 1189L546 1185L454.5 1175.5L362 1161L267.5 1141L219.5 1128L173.5 1114.5L84 1084L34 1063.5L15 1053.5L6 1046L0 1035.5V135.5Z" fill="#2D5063"/>
<path d="M69.0614 998.706L68.285 1000.55L69.0614 998.706ZM1380.89 929.608L1379.81 927.928L1380.89 929.608ZM29.0491 1061.61L29.8446 1059.78L29.8324 1059.77L29.0491 1061.61ZM1401.85 991.887L1400.84 990.16L1400.83 990.169L1400.81 990.18L1401.85 991.887ZM2.13855 1386.91C1.25014 1387.57 1.06201 1388.82 1.71836 1389.71C2.37471 1390.6 3.62699 1390.79 4.5154 1390.13L2.13855 1386.91ZM1318.97 1196L1320.84 1195.31L1318.97 1196ZM1579.73 1367.63C1580.82 1367.78 1581.83 1367.02 1581.98 1365.92C1582.13 1364.83 1581.37 1363.82 1580.27 1363.67L1579.73 1367.63ZM4.5154 1390.13C5.62758 1389.31 6.73147 1388.48 7.82712 1387.66L5.416 1384.46C4.33176 1385.28 3.23929 1386.1 2.13855 1386.91L4.5154 1390.13ZM14.3024 1382.65C16.428 1380.97 18.521 1379.28 20.5817 1377.58L18.035 1374.5C15.9967 1376.18 13.9262 1377.85 11.8231 1379.51L14.3024 1382.65ZM26.856 1372.28C28.9222 1370.5 30.9541 1368.7 32.952 1366.89L30.2684 1363.93C28.293 1365.71 26.2838 1367.49 24.2405 1369.26L26.856 1372.28ZM38.9124 1361.37C40.9078 1359.48 42.8674 1357.58 44.7915 1355.67L41.9717 1352.83C40.0701 1354.72 38.1333 1356.6 36.1608 1358.47L38.9124 1361.37ZM50.4582 1349.9C52.3651 1347.91 54.235 1345.91 56.0683 1343.91L53.1142 1341.21C51.303 1343.19 49.4556 1345.17 47.5714 1347.13L50.4582 1349.9ZM61.4763 1337.83C63.2702 1335.77 65.0266 1333.69 66.7461 1331.61L63.6608 1329.06C61.9628 1331.12 60.2281 1333.17 58.4562 1335.21L61.4763 1337.83ZM71.8638 1325.24C73.5423 1323.1 75.1828 1320.94 76.7858 1318.78L73.5737 1316.4C71.9912 1318.53 70.3716 1320.66 68.7143 1322.78L71.8638 1325.24ZM81.5834 1312.14C83.1439 1309.92 84.6658 1307.69 86.1496 1305.45L82.8165 1303.24C81.352 1305.45 79.8499 1307.65 78.3097 1309.84L81.5834 1312.14ZM90.597 1298.55C92.0407 1296.24 93.445 1293.92 94.8104 1291.6L91.3631 1289.57C90.0159 1291.86 88.6302 1294.15 87.2055 1296.43L90.597 1298.55ZM98.8673 1284.49C100.186 1282.1 101.465 1279.71 102.704 1277.31L99.1513 1275.48C97.9287 1277.84 96.6671 1280.2 95.3659 1282.56L98.8673 1284.49ZM106.359 1270C107.546 1267.54 108.692 1265.08 109.799 1262.61L106.15 1260.98C105.058 1263.41 103.928 1265.84 102.757 1268.26L106.359 1270ZM113.04 1255.12C114.089 1252.59 115.097 1250.07 116.065 1247.54L112.33 1246.11C111.376 1248.6 110.381 1251.09 109.346 1253.58L113.04 1255.12ZM118.881 1239.88C119.788 1237.3 120.653 1234.73 121.478 1232.15L117.668 1230.93C116.855 1233.47 116.002 1236.01 115.107 1238.55L118.881 1239.88ZM123.858 1224.34C124.618 1221.71 125.336 1219.09 126.014 1216.48L122.142 1215.47C121.474 1218.05 120.765 1220.64 120.016 1223.23L123.858 1224.34ZM127.951 1208.54C128.56 1205.88 129.128 1203.22 129.656 1200.57L125.733 1199.79C125.213 1202.4 124.653 1205.02 124.052 1207.65L127.951 1208.54ZM131.14 1192.53C131.596 1189.84 132.011 1187.16 132.387 1184.49L128.426 1183.93C128.056 1186.56 127.646 1189.21 127.196 1191.86L131.14 1192.53ZM133.409 1176.36C133.71 1173.66 133.97 1170.96 134.191 1168.28L130.204 1167.95C129.987 1170.6 129.73 1173.25 129.433 1175.92L133.409 1176.36ZM134.743 1160.09C134.887 1157.37 134.99 1154.65 135.053 1151.96L131.054 1151.87C130.992 1154.52 130.89 1157.19 130.748 1159.88L134.743 1160.09ZM135.124 1143.78C135.107 1141.04 135.049 1138.32 134.952 1135.62L130.954 1135.76C131.051 1138.42 131.108 1141.1 131.124 1143.8L135.124 1143.78ZM134.534 1127.47C134.351 1124.73 134.126 1122.01 133.863 1119.31L129.882 1119.7C130.141 1122.36 130.362 1125.04 130.542 1127.74L134.534 1127.47ZM132.943 1111.23C132.588 1108.5 132.192 1105.79 131.755 1103.12L127.807 1103.76C128.237 1106.39 128.627 1109.05 128.976 1111.75L132.943 1111.23ZM130.306 1095.07C129.774 1092.38 129.202 1089.73 128.591 1087.12L124.696 1088.03C125.297 1090.6 125.859 1093.21 126.382 1095.85L130.306 1095.07ZM126.577 1079.15C125.853 1076.49 125.088 1073.87 124.283 1071.3L120.466 1072.5C121.256 1075.02 122.007 1077.59 122.718 1080.2L126.577 1079.15ZM121.694 1063.58C120.758 1060.96 119.778 1058.39 118.76 1055.89L115.054 1057.39C116.051 1059.84 117.01 1062.36 117.928 1064.92L121.694 1063.58ZM115.499 1048.36C114.339 1045.84 113.136 1043.4 111.894 1041.02L108.35 1042.87C109.56 1045.19 110.733 1047.58 111.867 1050.03L115.499 1048.36ZM107.9 1033.86C106.464 1031.44 104.984 1029.12 103.463 1026.89L100.159 1029.14C101.631 1031.3 103.067 1033.56 104.462 1035.9L107.9 1033.86ZM98.5798 1020.23C96.831 1018.02 95.0372 1015.92 93.2029 1013.95L90.275 1016.68C92.0321 1018.57 93.7557 1020.58 95.4412 1022.71L98.5798 1020.23ZM87.2801 1008.15C85.1509 1006.26 82.9756 1004.53 80.76 1002.98L78.4602 1006.25C80.5441 1007.71 82.601 1009.35 84.6243 1011.14L87.2801 1008.15ZM73.6099 998.629C72.3625 997.986 71.1048 997.397 69.8378 996.863L68.285 1000.55C69.454 1001.04 70.6184 1001.59 71.777 1002.18L73.6099 998.629ZM69.8378 996.863C68.5897 996.337 67.3564 995.841 66.1381 995.374L64.7053 999.108C65.8825 999.56 67.0758 1000.04 68.285 1000.55L69.8378 996.863ZM58.711 992.819C56.0974 992.027 53.5603 991.375 51.1008 990.854L50.2729 994.768C52.6152 995.263 55.0415 995.887 57.5509 996.647L58.711 992.819ZM43.255 989.605C40.4852 989.315 37.8303 989.207 35.2929 989.266L35.3858 993.265C37.7446 993.21 40.2294 993.31 42.8394 993.583L43.255 989.605ZM27.3037 990.059C24.5274 990.563 21.9319 991.295 19.523 992.229L20.9689 995.958C23.1309 995.12 25.4809 994.455 28.0188 993.994L27.3037 990.059ZM12.2911 995.99C9.95461 997.569 7.89258 999.384 6.11379 1001.39L9.10452 1004.04C10.6595 1002.29 12.4688 1000.7 14.5309 999.304L12.2911 995.99ZM1.49801 1008.18C0.26201 1010.64 -0.649326 1013.24 -1.23137 1015.92L2.67798 1016.77C3.19 1014.41 3.98983 1012.13 5.07033 1009.98L1.49801 1008.18ZM-1.98855 1024.07C-1.92051 1026.75 -1.54904 1029.46 -0.871212 1032.14L3.00728 1031.17C2.40047 1028.76 2.07054 1026.35 2.01016 1023.97L-1.98855 1024.07ZM1.92024 1039.77C3.07063 1042.13 4.4756 1044.45 6.13716 1046.67L9.34202 1044.28C7.82918 1042.25 6.55634 1040.15 5.51785 1038.02L1.92024 1039.77ZM11.5082 1052.69C13.388 1054.46 15.4653 1056.14 17.7412 1057.71L20.0082 1054.41C17.8984 1052.96 15.982 1051.41 14.2552 1049.78L11.5082 1052.69ZM24.6268 1061.77C25.8006 1062.36 27.0136 1062.92 28.2658 1063.45L29.8324 1059.77C28.6561 1059.27 27.5191 1058.74 26.4211 1058.19L24.6268 1061.77ZM28.2536 1063.45C29.4462 1063.96 30.6445 1064.48 31.8484 1065L33.4269 1061.32C32.2271 1060.81 31.033 1060.29 29.8446 1059.78L28.2536 1063.45ZM39.139 1068.1C41.5916 1069.13 44.0665 1070.17 46.5634 1071.2L48.0927 1067.5C45.6039 1066.47 43.1372 1065.44 40.6929 1064.41L39.139 1068.1ZM54.1199 1074.3C56.5478 1075.28 58.9956 1076.27 61.4631 1077.25L62.9451 1073.54C60.4853 1072.56 58.0452 1071.57 55.625 1070.59L54.1199 1074.3ZM68.8696 1080.18C71.3577 1081.16 73.8651 1082.13 76.3914 1083.1L77.8283 1079.37C75.3094 1078.4 72.8096 1077.43 70.329 1076.46L68.8696 1080.18ZM84.0158 1086.01C86.4604 1086.93 88.9221 1087.86 91.4007 1088.78L92.7939 1085.03C90.3223 1084.11 87.8677 1083.19 85.4302 1082.27L84.0158 1086.01ZM98.8872 1091.54C101.4 1092.45 103.929 1093.37 106.474 1094.28L107.825 1090.52C105.286 1089.61 102.764 1088.69 100.259 1087.78L98.8872 1091.54ZM114.156 1097.01C116.626 1097.88 119.11 1098.75 121.609 1099.62L122.919 1095.84C120.426 1094.97 117.949 1094.11 115.486 1093.24L114.156 1097.01ZM129.151 1102.21C131.68 1103.07 134.223 1103.93 136.782 1104.78L138.051 1100.99C135.499 1100.14 132.963 1099.28 130.44 1098.42L129.151 1102.21ZM144.499 1107.34C147.005 1108.17 149.524 1108.99 152.057 1109.81L153.286 1106C150.76 1105.18 148.247 1104.36 145.748 1103.54L144.499 1107.34ZM159.638 1112.23C162.178 1113.04 164.731 1113.84 167.297 1114.64L168.488 1110.82C165.928 1110.03 163.381 1109.22 160.848 1108.42L159.638 1112.23ZM175.033 1117.03C177.584 1117.81 180.147 1118.59 182.723 1119.37L183.875 1115.54C181.306 1114.76 178.749 1113.99 176.205 1113.21L175.033 1117.03ZM190.331 1121.64C192.879 1122.39 195.439 1123.14 198.01 1123.88L199.124 1120.04C196.559 1119.3 194.006 1118.55 191.465 1117.8L190.331 1121.64ZM205.757 1126.11C208.351 1126.85 210.956 1127.59 213.573 1128.32L214.65 1124.46C212.039 1123.73 209.44 1123 206.853 1122.26L205.757 1126.11ZM221.221 1130.43C223.774 1131.14 226.338 1131.83 228.912 1132.53L229.952 1128.66C227.384 1127.97 224.826 1127.28 222.279 1126.58L221.221 1130.43ZM236.665 1134.59C239.26 1135.28 241.864 1135.96 244.479 1136.64L245.482 1132.77C242.874 1132.09 240.275 1131.41 237.687 1130.73L236.665 1134.59ZM252.297 1138.64C254.854 1139.29 257.42 1139.94 259.996 1140.58L260.963 1136.7C258.393 1136.06 255.832 1135.41 253.281 1134.77L252.297 1138.64ZM267.752 1142.49C270.346 1143.13 272.95 1143.75 275.563 1144.38L276.493 1140.49C273.886 1139.87 271.289 1139.24 268.7 1138.61L267.752 1142.49ZM283.428 1146.24C286.028 1146.85 288.637 1147.45 291.255 1148.05L292.149 1144.15C289.537 1143.56 286.934 1142.95 284.34 1142.35L283.428 1146.24ZM299.011 1149.81C301.605 1150.39 304.207 1150.97 306.817 1151.54L307.675 1147.64C305.071 1147.07 302.475 1146.49 299.887 1145.91L299.011 1149.81ZM314.673 1153.25C317.299 1153.81 319.934 1154.37 322.577 1154.93L323.398 1151.01C320.761 1150.46 318.133 1149.9 315.512 1149.34L314.673 1153.25ZM330.435 1156.56C333.027 1157.09 335.628 1157.62 338.236 1158.14L339.021 1154.22C336.419 1153.7 333.825 1153.17 331.238 1152.64L330.435 1156.56ZM346.081 1159.69C348.704 1160.2 351.334 1160.71 353.972 1161.21L354.721 1157.28C352.089 1156.78 349.465 1156.28 346.849 1155.76L346.081 1159.69ZM361.905 1162.71C364.533 1163.2 367.168 1163.68 369.809 1164.16L370.522 1160.22C367.887 1159.74 365.258 1159.26 362.636 1158.78L361.905 1162.71ZM377.646 1165.56C380.265 1166.02 382.891 1166.48 385.523 1166.93L386.2 1162.99C383.574 1162.54 380.954 1162.08 378.341 1161.62L377.646 1165.56ZM393.44 1168.27C396.085 1168.71 398.737 1169.15 401.396 1169.58L402.036 1165.63C399.384 1165.2 396.738 1164.77 394.098 1164.32L393.44 1168.27ZM409.356 1170.85C411.972 1171.26 414.593 1171.67 417.221 1172.07L417.825 1168.12C415.203 1167.72 412.588 1167.31 409.978 1166.9L409.356 1170.85ZM425.122 1173.26C427.762 1173.65 430.408 1174.04 433.059 1174.42L433.627 1170.46C430.981 1170.08 428.342 1169.69 425.708 1169.3L425.122 1173.26ZM441.032 1175.54C443.695 1175.91 446.364 1176.27 449.039 1176.63L449.569 1172.67C446.901 1172.31 444.238 1171.95 441.581 1171.58L441.032 1175.54ZM456.941 1177.67C459.575 1178.01 462.215 1178.34 464.86 1178.67L465.354 1174.7C462.715 1174.38 460.081 1174.04 457.453 1173.7L456.941 1177.67ZM472.812 1179.64C475.468 1179.96 478.129 1180.27 480.796 1180.58L481.253 1176.61C478.592 1176.3 475.937 1175.99 473.288 1175.67L472.812 1179.64ZM488.81 1181.48C491.464 1181.78 494.122 1182.06 496.786 1182.34L497.206 1178.37C494.548 1178.09 491.896 1177.8 489.249 1177.51L488.81 1181.48ZM504.719 1183.16C507.368 1183.43 510.022 1183.69 512.68 1183.95L513.063 1179.96C510.41 1179.71 507.763 1179.45 505.12 1179.18L504.719 1183.16ZM520.67 1184.69C523.339 1184.94 526.011 1185.18 528.689 1185.41L529.034 1181.42C526.363 1181.19 523.696 1180.95 521.034 1180.71L520.67 1184.69ZM536.735 1186.08C539.378 1186.3 542.026 1186.51 544.678 1186.71L544.985 1182.73C542.339 1182.52 539.698 1182.31 537.061 1182.1L536.735 1186.08ZM552.645 1187.31C555.305 1187.5 557.969 1187.69 560.638 1187.87L560.907 1183.88C558.245 1183.7 555.587 1183.51 552.933 1183.32L552.645 1187.31ZM568.656 1188.39C571.333 1188.56 574.014 1188.72 576.699 1188.87L576.929 1184.88C574.251 1184.72 571.576 1184.56 568.906 1184.4L568.656 1188.39ZM584.719 1189.32C587.371 1189.46 590.027 1189.59 592.687 1189.72L592.879 1185.72C590.226 1185.6 587.576 1185.46 584.93 1185.32L584.719 1189.32ZM600.678 1190.08C603.345 1190.2 606.017 1190.31 608.692 1190.41L608.845 1186.41C606.177 1186.31 603.512 1186.2 600.851 1186.09L600.678 1190.08ZM616.727 1190.7C619.41 1190.79 622.096 1190.87 624.785 1190.95L624.9 1186.95C622.217 1186.88 619.537 1186.79 616.862 1186.7L616.727 1190.7ZM632.784 1191.16C635.443 1191.22 638.104 1191.28 640.77 1191.33L640.845 1187.33C638.186 1187.28 635.531 1187.23 632.879 1187.16L632.784 1191.16ZM648.775 1191.46C651.447 1191.5 654.122 1191.53 656.8 1191.55L656.836 1187.55C654.164 1187.53 651.496 1187.5 648.831 1187.46L648.775 1191.46ZM664.845 1191.61C667.529 1191.62 670.217 1191.62 672.908 1191.62L672.904 1187.62C670.22 1187.62 667.539 1187.62 664.861 1187.61L664.845 1191.61ZM680.891 1191.59C683.552 1191.57 686.216 1191.55 688.883 1191.52L688.84 1187.52C686.179 1187.55 683.521 1187.57 680.867 1187.59L680.891 1191.59ZM696.894 1191.41C699.567 1191.37 702.243 1191.32 704.921 1191.27L704.837 1187.27C702.165 1187.32 699.496 1187.37 696.83 1187.42L696.894 1191.41ZM712.966 1191.08C715.647 1191.01 718.331 1190.93 721.018 1190.84L720.893 1186.85C718.213 1186.93 715.536 1187.01 712.861 1187.08L712.966 1191.08ZM728.993 1190.58C731.654 1190.48 734.318 1190.38 736.984 1190.26L736.818 1186.27C734.159 1186.38 731.502 1186.48 728.848 1186.58L728.993 1190.58ZM744.99 1189.91C747.661 1189.79 750.335 1189.66 753.011 1189.52L752.804 1185.52C750.135 1185.66 747.468 1185.79 744.804 1185.92L744.99 1189.91ZM761.046 1189.08C763.722 1188.93 766.399 1188.77 769.079 1188.6L768.831 1184.61C766.158 1184.78 763.487 1184.94 760.819 1185.09L761.046 1189.08ZM777.046 1188.09C779.703 1187.91 782.363 1187.72 785.025 1187.53L784.736 1183.54C782.081 1183.73 779.428 1183.92 776.777 1184.1L777.046 1188.09ZM793.018 1186.93C795.684 1186.72 798.352 1186.5 801.023 1186.28L800.691 1182.29C798.028 1182.52 795.366 1182.73 792.707 1182.94L793.018 1186.93ZM809.04 1185.59C811.709 1185.36 814.379 1185.11 817.052 1184.86L816.678 1180.88C814.013 1181.13 811.349 1181.37 808.687 1181.61L809.04 1185.59ZM825 1184.09C827.651 1183.83 830.304 1183.56 832.959 1183.28L832.542 1179.3C829.895 1179.58 827.249 1179.85 824.605 1180.11L825 1184.09ZM840.928 1182.43C843.586 1182.13 846.246 1181.83 848.908 1181.53L848.449 1177.55C845.794 1177.86 843.141 1178.16 840.49 1178.45L840.928 1182.43ZM856.897 1180.58C859.558 1180.26 862.221 1179.93 864.886 1179.59L864.384 1175.62C861.726 1175.96 859.071 1176.29 856.417 1176.61L856.897 1180.58ZM872.805 1178.57C875.446 1178.22 878.088 1177.86 880.732 1177.5L880.187 1173.54C877.551 1173.9 874.915 1174.26 872.281 1174.6L872.805 1178.57ZM888.669 1176.39C891.316 1176.01 893.964 1175.62 896.613 1175.23L896.025 1171.27C893.383 1171.66 890.742 1172.05 888.102 1172.43L888.669 1176.39ZM904.566 1174.02C907.218 1173.61 909.871 1173.2 912.526 1172.77L911.894 1168.82C909.246 1169.24 906.6 1169.66 903.955 1170.07L904.566 1174.02ZM920.406 1171.49C923.034 1171.05 925.663 1170.61 928.293 1170.16L927.617 1166.21C924.994 1166.66 922.373 1167.11 919.752 1167.54L920.406 1171.49ZM936.186 1168.78C938.818 1168.31 941.451 1167.84 944.085 1167.36L943.365 1163.42C940.739 1163.9 938.113 1164.38 935.488 1164.84L936.186 1168.78ZM951.991 1165.89C954.627 1165.39 957.264 1164.89 959.902 1164.37L959.137 1160.45C956.507 1160.96 953.877 1161.46 951.249 1161.96L951.991 1165.89ZM967.749 1162.82C970.36 1162.3 972.971 1161.77 975.583 1161.23L974.775 1157.31C972.17 1157.85 969.566 1158.38 966.963 1158.9L967.749 1162.82ZM983.423 1159.59C986.036 1159.03 988.651 1158.47 991.266 1157.9L990.413 1153.99C987.805 1154.56 985.198 1155.12 982.592 1155.67L983.423 1159.59ZM999.114 1156.16C1001.73 1155.57 1004.35 1154.98 1006.97 1154.38L1006.07 1150.48C1003.46 1151.08 1000.85 1151.67 998.238 1152.26L999.114 1156.16ZM1014.77 1152.55C1017.36 1151.94 1019.95 1151.32 1022.55 1150.69L1021.6 1146.8C1019.02 1147.43 1016.44 1148.05 1013.85 1148.66L1014.77 1152.55ZM1030.32 1148.78C1032.91 1148.14 1035.5 1147.49 1038.1 1146.83L1037.11 1142.95C1034.52 1143.61 1031.94 1144.26 1029.35 1144.9L1030.32 1148.78ZM1045.87 1144.82C1048.47 1144.14 1051.06 1143.46 1053.66 1142.76L1052.62 1138.9C1050.04 1139.59 1047.45 1140.27 1044.86 1140.95L1045.87 1144.82ZM1061.42 1140.66C1063.99 1139.96 1066.55 1139.25 1069.12 1138.53L1068.04 1134.68C1065.48 1135.4 1062.92 1136.11 1060.37 1136.81L1061.42 1140.66ZM1076.81 1136.36C1079.38 1135.62 1081.95 1134.88 1084.51 1134.13L1083.39 1130.29C1080.83 1131.04 1078.27 1131.78 1075.71 1132.51L1076.81 1136.36ZM1092.21 1131.85C1094.78 1131.08 1097.34 1130.31 1099.91 1129.53L1098.74 1125.7C1096.18 1126.48 1093.62 1127.25 1091.07 1128.02L1092.21 1131.85ZM1107.61 1127.15C1110.15 1126.36 1112.7 1125.55 1115.24 1124.74L1114.03 1120.93C1111.49 1121.74 1108.95 1122.54 1106.42 1123.33L1107.61 1127.15ZM1122.85 1122.3C1125.38 1121.47 1127.92 1120.64 1130.45 1119.8L1129.2 1116C1126.67 1116.84 1124.14 1117.67 1121.61 1118.49L1122.85 1122.3ZM1138.06 1117.25C1140.6 1116.39 1143.13 1115.53 1145.67 1114.65L1144.36 1110.87C1141.84 1111.74 1139.31 1112.61 1136.78 1113.46L1138.06 1117.25ZM1153.27 1112C1155.8 1111.12 1158.32 1110.22 1160.85 1109.31L1159.5 1105.55C1156.98 1106.45 1154.46 1107.35 1151.94 1108.23L1153.27 1112ZM1168.35 1106.6C1170.86 1105.68 1173.36 1104.76 1175.86 1103.83L1174.46 1100.08C1171.97 1101.01 1169.48 1101.93 1166.98 1102.84L1168.35 1106.6ZM1183.36 1101.01C1185.86 1100.07 1188.36 1099.11 1190.86 1098.15L1189.42 1094.42C1186.93 1095.38 1184.44 1096.33 1181.94 1097.27L1183.36 1101.01ZM1198.36 1095.23C1200.86 1094.25 1203.35 1093.26 1205.85 1092.26L1204.37 1088.54C1201.88 1089.54 1199.39 1090.53 1196.9 1091.5L1198.36 1095.23ZM1213.27 1089.26C1215.74 1088.26 1218.2 1087.25 1220.66 1086.23L1219.13 1082.54C1216.68 1083.55 1214.22 1084.56 1211.76 1085.56L1213.27 1089.26ZM1228.05 1083.15C1230.51 1082.11 1232.97 1081.07 1235.43 1080.01L1233.85 1076.34C1231.4 1077.39 1228.95 1078.43 1226.49 1079.46L1228.05 1083.15ZM1242.81 1076.83C1245.26 1075.76 1247.72 1074.68 1250.18 1073.59L1248.56 1069.93C1246.11 1071.01 1243.66 1072.09 1241.21 1073.16L1242.81 1076.83ZM1257.54 1070.3C1259.96 1069.21 1262.38 1068.11 1264.8 1067.01L1263.14 1063.37C1260.73 1064.47 1258.31 1065.57 1255.9 1066.65L1257.54 1070.3ZM1272.06 1063.66C1274.48 1062.53 1276.89 1061.4 1279.31 1060.26L1277.6 1056.64C1275.19 1057.78 1272.78 1058.91 1270.37 1060.03L1272.06 1063.66ZM1286.56 1056.81C1288.97 1055.65 1291.38 1054.49 1293.8 1053.31L1292.04 1049.72C1289.64 1050.89 1287.23 1052.05 1284.83 1053.21L1286.56 1056.81ZM1301.03 1049.76C1303.43 1048.57 1305.83 1047.37 1308.23 1046.17L1306.43 1042.6C1304.04 1043.8 1301.65 1044.99 1299.26 1046.17L1301.03 1049.76ZM1315.34 1042.57C1317.71 1041.36 1320.08 1040.14 1322.45 1038.91L1320.61 1035.36C1318.25 1036.58 1315.88 1037.8 1313.52 1039L1315.34 1042.57ZM1329.55 1035.21C1331.92 1033.96 1334.28 1032.71 1336.64 1031.45L1334.76 1027.92C1332.41 1029.18 1330.05 1030.43 1327.69 1031.67L1329.55 1035.21ZM1343.73 1027.64C1346.09 1026.36 1348.45 1025.07 1350.81 1023.78L1348.89 1020.27C1346.54 1021.56 1344.18 1022.85 1341.83 1024.12L1343.73 1027.64ZM1357.84 1019.89C1360.15 1018.6 1362.47 1017.3 1364.79 1015.99L1362.82 1012.51C1360.51 1013.81 1358.2 1015.11 1355.89 1016.4L1357.84 1019.89ZM1371.73 1012.03C1374.05 1010.71 1376.36 1009.37 1378.67 1008.03L1376.66 1004.57C1374.36 1005.91 1372.05 1007.24 1369.74 1008.56L1371.73 1012.03ZM1385.6 1003.97C1387.91 1002.61 1390.22 1001.24 1392.52 999.858L1390.47 996.425C1388.17 997.799 1385.87 999.165 1383.57 1000.52L1385.6 1003.97ZM1399.44 995.695C1400.59 994.997 1401.74 994.297 1402.89 993.594L1400.81 990.18C1399.66 990.88 1398.51 991.579 1397.36 992.275L1399.44 995.695ZM1402.86 993.614C1404.1 992.89 1405.3 992.161 1406.47 991.428L1404.34 988.04C1403.21 988.75 1402.05 989.457 1400.84 990.16L1402.86 993.614ZM1413.35 986.759C1415.7 985.03 1417.87 983.282 1419.87 981.522L1417.23 978.521C1415.32 980.199 1413.24 981.873 1410.98 983.536L1413.35 986.759ZM1425.89 975.624C1427.89 973.42 1429.64 971.207 1431.15 969L1427.85 966.744C1426.45 968.788 1424.82 970.856 1422.93 972.932L1425.89 975.624ZM1435.34 961.573C1436.59 958.789 1437.46 956.038 1437.99 953.351L1434.06 952.587C1433.6 954.956 1432.82 957.415 1431.69 959.938L1435.34 961.573ZM1438.46 944.636C1438.18 941.613 1437.43 938.752 1436.27 936.112L1432.61 937.727C1433.6 939.967 1434.24 942.406 1434.48 945.003L1438.46 944.636ZM1431.42 928.746C1429.46 926.62 1427.14 924.79 1424.54 923.31L1422.56 926.786C1424.82 928.07 1426.81 929.646 1428.49 931.462L1431.42 928.746ZM1416.44 920.085C1413.74 919.407 1410.87 919.035 1407.87 919.002L1407.83 923.002C1410.52 923.032 1413.08 923.366 1415.47 923.965L1416.44 920.085ZM1399.33 919.794C1396.65 920.311 1393.91 921.087 1391.13 922.141L1392.55 925.881C1395.12 924.906 1397.64 924.193 1400.09 923.721L1399.33 919.794ZM1383.44 925.739C1382.23 926.414 1381.02 927.143 1379.81 927.928L1381.98 931.288C1383.12 930.549 1384.26 929.864 1385.39 929.232L1383.44 925.739ZM1379.81 927.928C1378.72 928.63 1377.63 929.354 1376.54 930.101L1378.79 933.404C1379.86 932.676 1380.92 931.971 1381.98 931.288L1379.81 927.928ZM1370.12 934.728C1368.06 936.286 1366 937.924 1363.95 939.641L1366.51 942.711C1368.52 941.034 1370.53 939.435 1372.53 937.914L1370.12 934.728ZM1358.02 944.831C1356.11 946.58 1354.21 948.398 1352.32 950.285L1355.16 953.112C1357 951.266 1358.86 949.489 1360.72 947.781L1358.02 944.831ZM1346.88 955.986C1345.12 957.9 1343.39 959.877 1341.68 961.917L1344.74 964.487C1346.42 962.492 1348.11 960.558 1349.83 958.686L1346.88 955.986ZM1336.74 968.065C1335.16 970.126 1333.6 972.243 1332.07 974.417L1335.35 976.718C1336.84 974.59 1338.37 972.518 1339.92 970.502L1336.74 968.065ZM1327.68 980.96C1326.28 983.148 1324.9 985.388 1323.56 987.681L1327.02 989.698C1328.33 987.454 1329.67 985.261 1331.05 983.12L1327.68 980.96ZM1319.73 994.567C1318.52 996.865 1317.34 999.211 1316.2 1001.61L1319.81 1003.33C1320.92 1000.98 1322.08 998.687 1323.27 996.438L1319.73 994.567ZM1312.95 1008.78C1311.93 1011.18 1310.95 1013.61 1310.01 1016.09L1313.74 1017.51C1314.67 1015.08 1315.63 1012.7 1316.63 1010.36L1312.95 1008.78ZM1307.36 1023.51C1306.53 1025.98 1305.75 1028.49 1305.01 1031.03L1308.85 1032.15C1309.57 1029.65 1310.34 1027.2 1311.15 1024.78L1307.36 1023.51ZM1302.96 1038.65C1302.33 1041.17 1301.74 1043.73 1301.2 1046.33L1305.12 1047.14C1305.65 1044.59 1306.22 1042.09 1306.84 1039.61L1302.96 1038.65ZM1299.75 1054.05C1299.32 1056.6 1298.93 1059.2 1298.58 1061.82L1302.55 1062.34C1302.89 1059.77 1303.27 1057.22 1303.69 1054.71L1299.75 1054.05ZM1297.7 1069.65C1297.45 1072.24 1297.25 1074.86 1297.09 1077.51L1301.08 1077.75C1301.24 1075.14 1301.44 1072.57 1301.68 1070.02L1297.7 1069.65ZM1296.76 1085.36C1296.69 1087.94 1296.67 1090.56 1296.69 1093.2L1300.69 1093.17C1300.67 1090.57 1300.69 1088 1300.76 1085.46L1296.76 1085.36ZM1296.87 1101.07C1296.97 1103.67 1297.11 1106.29 1297.3 1108.95L1301.29 1108.67C1301.11 1106.05 1300.97 1103.47 1300.86 1100.91L1296.87 1101.07ZM1297.96 1116.74C1298.22 1119.31 1298.52 1121.91 1298.86 1124.54L1302.82 1124.03C1302.49 1121.44 1302.2 1118.88 1301.94 1116.34L1297.96 1116.74ZM1299.98 1132.35C1300.38 1134.89 1300.82 1137.46 1301.3 1140.04L1305.23 1139.32C1304.76 1136.77 1304.32 1134.24 1303.93 1131.73L1299.98 1132.35ZM1302.82 1147.75C1303.36 1150.29 1303.93 1152.85 1304.55 1155.42L1308.44 1154.5C1307.83 1151.95 1307.27 1149.43 1306.74 1146.93L1302.82 1147.75ZM1306.44 1163C1307.1 1165.52 1307.8 1168.06 1308.53 1170.61L1312.38 1169.51C1311.65 1166.98 1310.96 1164.47 1310.31 1161.99L1306.44 1163ZM1310.77 1178.08C1311.54 1180.55 1312.34 1183.05 1313.18 1185.56L1316.97 1184.29C1316.14 1181.81 1315.35 1179.34 1314.59 1176.89L1310.77 1178.08ZM1315.74 1192.95C1316.18 1194.19 1316.63 1195.44 1317.09 1196.69L1320.84 1195.31C1320.39 1194.07 1319.94 1192.84 1319.5 1191.61L1315.74 1192.95ZM1317.09 1196.69C1317.56 1197.96 1318.03 1199.21 1318.51 1200.46L1322.24 1199.03C1321.77 1197.8 1321.31 1196.56 1320.84 1195.31L1317.09 1196.69ZM1321.45 1207.84C1322.48 1210.31 1323.52 1212.75 1324.6 1215.15L1328.25 1213.51C1327.19 1211.15 1326.16 1208.75 1325.14 1206.3L1321.45 1207.84ZM1327.93 1222.33C1329.1 1224.75 1330.29 1227.13 1331.51 1229.47L1335.06 1227.62C1333.86 1225.32 1332.69 1222.98 1331.54 1220.59L1327.93 1222.33ZM1335.25 1236.42C1336.57 1238.77 1337.91 1241.08 1339.27 1243.35L1342.7 1241.29C1341.36 1239.06 1340.04 1236.78 1338.74 1234.46L1335.25 1236.42ZM1343.47 1250.08C1344.92 1252.33 1346.4 1254.53 1347.9 1256.69L1351.19 1254.41C1349.71 1252.29 1348.26 1250.12 1346.83 1247.91L1343.47 1250.08ZM1352.56 1263.16C1354.15 1265.3 1355.76 1267.39 1357.4 1269.43L1360.52 1266.93C1358.92 1264.93 1357.33 1262.87 1355.76 1260.77L1352.56 1263.16ZM1362.51 1275.59C1364.25 1277.61 1366.02 1279.59 1367.8 1281.53L1370.74 1278.81C1368.99 1276.92 1367.25 1274.97 1365.54 1272.98L1362.51 1275.59ZM1373.29 1287.26C1375.18 1289.17 1377.09 1291.03 1379.01 1292.84L1381.75 1289.92C1379.86 1288.14 1377.98 1286.32 1376.13 1284.45L1373.29 1287.26ZM1384.91 1298.18C1386.92 1299.93 1388.94 1301.64 1390.98 1303.3L1393.51 1300.2C1391.5 1298.57 1389.52 1296.89 1387.55 1295.17L1384.91 1298.18ZM1397.26 1308.23C1399.39 1309.84 1401.54 1311.4 1403.7 1312.92L1406 1309.65C1403.88 1308.16 1401.77 1306.62 1399.68 1305.04L1397.26 1308.23ZM1410.28 1317.38C1412.51 1318.84 1414.76 1320.25 1417.01 1321.62L1419.09 1318.2C1416.87 1316.86 1414.66 1315.47 1412.47 1314.03L1410.28 1317.38ZM1423.89 1325.64C1426.22 1326.95 1428.55 1328.21 1430.89 1329.43L1432.74 1325.88C1430.44 1324.68 1428.14 1323.44 1425.85 1322.15L1423.89 1325.64ZM1437.99 1332.99C1440.39 1334.15 1442.8 1335.27 1445.2 1336.34L1446.83 1332.69C1444.46 1331.63 1442.09 1330.53 1439.73 1329.39L1437.99 1332.99ZM1452.52 1339.48C1454.98 1340.49 1457.45 1341.47 1459.91 1342.4L1461.33 1338.66C1458.9 1337.74 1456.47 1336.78 1454.04 1335.78L1452.52 1339.48ZM1467.37 1345.12C1469.88 1346 1472.39 1346.84 1474.89 1347.64L1476.12 1343.83C1473.65 1343.04 1471.17 1342.21 1468.69 1341.34L1467.37 1345.12ZM1482.49 1349.98C1485.06 1350.74 1487.61 1351.46 1490.14 1352.14L1491.18 1348.28C1488.68 1347.6 1486.16 1346.89 1483.63 1346.15L1482.49 1349.98ZM1497.83 1354.13C1500.42 1354.77 1503 1355.37 1505.55 1355.95L1506.43 1352.05C1503.9 1351.48 1501.35 1350.88 1498.79 1350.24L1497.83 1354.13ZM1513.29 1357.61C1515.91 1358.15 1518.5 1358.66 1521.06 1359.14L1521.8 1355.21C1519.26 1354.73 1516.69 1354.23 1514.1 1353.7L1513.29 1357.61ZM1528.86 1360.53C1531.51 1360.99 1534.12 1361.41 1536.69 1361.81L1537.3 1357.86C1534.76 1357.46 1532.16 1357.04 1529.54 1356.59L1528.86 1360.53ZM1544.52 1362.99C1547.19 1363.37 1549.8 1363.73 1552.35 1364.08L1552.89 1360.11C1550.35 1359.77 1547.74 1359.41 1545.09 1359.03L1544.52 1362.99ZM1560.18 1365.1C1562.88 1365.45 1565.51 1365.78 1568.03 1366.1L1568.53 1362.13C1566.01 1361.81 1563.39 1361.48 1560.69 1361.13L1560.18 1365.1ZM1575.88 1367.11C1577.19 1367.28 1578.48 1367.45 1579.73 1367.63L1580.27 1363.67C1579.02 1363.49 1577.72 1363.32 1576.4 1363.14L1575.88 1367.11Z" fill="#94A6B0"/>
</svg>
