<svg width="40" height="40" viewBox="0 0 40 40" fill="none" xmlns="http://www.w3.org/2000/svg">
<path d="M23.3334 31.6667C29.6184 31.6667 32.7617 31.6667 34.7134 29.7133C36.6667 27.7617 36.6667 24.6183 36.6667 18.3333C36.6667 12.0483 36.6667 8.905 34.7134 6.95333C32.7617 5 29.6184 5 23.3334 5H16.6667C10.3817 5 7.23837 5 5.28671 6.95333C3.33337 8.905 3.33337 12.0483 3.33337 18.3333C3.33337 24.6183 3.33337 27.7617 5.28671 29.7133C6.37504 30.8033 7.83337 31.285 10 31.4967" stroke="#2D5063" stroke-width="2" stroke-linecap="round" stroke-linejoin="round"/>
<path d="M15 18.3333L18.75 21.6667L25 15" stroke="#2D5063" stroke-width="2" stroke-linecap="round" stroke-linejoin="round"/>
<path d="M23.3334 31.6666C21.2734 31.6666 19.0034 32.5 16.9317 33.575C13.6017 35.3033 11.9367 36.1683 11.1167 35.6166C10.2967 35.0666 10.4517 33.3583 10.7634 29.9433L10.8334 29.1666" stroke="#2D5063" stroke-width="2" stroke-linecap="round"/>
</svg>
