<svg width="40" height="40" viewBox="0 0 40 40" fill="none" xmlns="http://www.w3.org/2000/svg">
<path d="M22.4999 10V16.6667H26.6666M24.4749 3.33337H16.6666C15.7825 3.33337 14.9347 3.68456 14.3096 4.30968C13.6844 4.93481 13.3333 5.78265 13.3333 6.66671V26.6667C13.3333 27.5508 13.6844 28.3986 14.3096 29.0237C14.9347 29.6488 15.7825 30 16.6666 30H29.9999C30.884 30 31.7318 29.6488 32.3569 29.0237C32.9821 28.3986 33.3333 27.5508 33.3333 26.6667V12.07C33.3332 11.626 33.2444 11.1864 33.0721 10.7771C32.8998 10.3678 32.6475 9.99711 32.3299 9.68671L26.8049 4.28337C26.1822 3.67447 25.3459 3.33348 24.4749 3.33337V3.33337Z" stroke="#2D5063" stroke-width="2" stroke-linecap="round" stroke-linejoin="round"/>
<path d="M26.6666 30.0001V33.3334C26.6666 34.2175 26.3154 35.0653 25.6903 35.6904C25.0652 36.3156 24.2173 36.6667 23.3333 36.6667H9.99996C9.1159 36.6667 8.26806 36.3156 7.64294 35.6904C7.01782 35.0653 6.66663 34.2175 6.66663 33.3334V15.0001C6.66663 14.116 7.01782 13.2682 7.64294 12.6431C8.26806 12.0179 9.1159 11.6667 9.99996 11.6667H13.3333" stroke="#2D5063" stroke-width="2" stroke-linecap="round" stroke-linejoin="round"/>
</svg>
