<svg width="40" height="40" viewBox="0 0 40 40" fill="none" xmlns="http://www.w3.org/2000/svg">
<path d="M6.25 37.5C5.91848 37.5 5.60054 37.3683 5.36612 37.1339C5.1317 36.8995 5 36.5815 5 36.25C5 35.9185 5.1317 35.6005 5.36612 35.3661C5.60054 35.1317 5.91848 35 6.25 35H8.75V32.5C8.74949 30.3774 9.34946 28.298 10.4806 26.5019C11.6118 24.7059 13.228 23.2665 15.1425 22.35C15.8675 22.0025 16.25 21.4075 16.25 20.875V19.125C16.25 18.5925 15.865 17.9975 15.1425 17.65C13.228 16.7335 11.6118 15.2941 10.4806 13.4981C9.34946 11.702 8.74949 9.62258 8.75 7.5V5H6.25C5.91848 5 5.60054 4.8683 5.36612 4.63388C5.1317 4.39946 5 4.08152 5 3.75C5 3.41848 5.1317 3.10054 5.36612 2.86612C5.60054 2.6317 5.91848 2.5 6.25 2.5H33.75C34.0815 2.5 34.3995 2.6317 34.6339 2.86612C34.8683 3.10054 35 3.41848 35 3.75C35 4.08152 34.8683 4.39946 34.6339 4.63388C34.3995 4.8683 34.0815 5 33.75 5H31.25V7.5C31.2505 9.62258 30.6505 11.702 29.5194 13.4981C28.3882 15.2941 26.772 16.7335 24.8575 17.65C24.1325 17.9975 23.75 18.5925 23.75 19.125V20.875C23.75 21.4075 24.135 22.0025 24.8575 22.35C26.772 23.2665 28.3882 24.7059 29.5194 26.5019C30.6505 28.298 31.2505 30.3774 31.25 32.5V35H33.75C34.0815 35 34.3995 35.1317 34.6339 35.3661C34.8683 35.6005 35 35.9185 35 36.25C35 36.5815 34.8683 36.8995 34.6339 37.1339C34.3995 37.3683 34.0815 37.5 33.75 37.5H6.25ZM11.25 5V7.5C11.25 8.8425 11.55 10.1125 12.0925 11.25H27.9075C28.4475 10.1125 28.75 8.8425 28.75 7.5V5H11.25ZM18.75 20.875C18.75 22.6275 17.555 23.965 16.2225 24.605C14.7332 25.3178 13.476 26.4374 12.5961 27.8344C11.7162 29.2315 11.2495 30.849 11.25 32.5C11.25 32.5 13.415 29.2525 18.75 28.8V20.875ZM21.25 20.875V28.8C26.585 29.2525 28.75 32.5 28.75 32.5C28.7505 30.849 28.2838 29.2315 27.4039 27.8344C26.524 26.4374 25.2668 25.3178 23.7775 24.605C22.445 23.965 21.25 22.63 21.25 20.8775V20.875Z" fill="#FCFCFC"/>
</svg>
