<svg width="40" height="40" viewBox="0 0 40 40" fill="none" xmlns="http://www.w3.org/2000/svg">
<path fill-rule="evenodd" clip-rule="evenodd" d="M17.9933 3.74C21.0883 3.04334 23.3333 5.70334 23.3333 8.33334V31.6667C23.3333 34.2967 21.0883 36.9567 17.9933 36.26C10.5567 34.5867 5 27.9433 5 20C5 12.0567 10.5567 5.41334 17.9933 3.74V3.74ZM27.155 13.8217C27.4675 13.5092 27.8914 13.3337 28.3333 13.3337C28.7753 13.3337 29.1991 13.5092 29.5117 13.8217L34.5117 18.8217C34.8241 19.1342 34.9996 19.5581 34.9996 20C34.9996 20.4419 34.8241 20.8658 34.5117 21.1783L29.5117 26.1783C29.1973 26.4819 28.7763 26.6499 28.3393 26.6461C27.9023 26.6423 27.4843 26.467 27.1753 26.158C26.8663 25.849 26.691 25.431 26.6872 24.994C26.6834 24.557 26.8514 24.136 27.155 23.8217L29.31 21.6667H15C14.558 21.6667 14.134 21.4911 13.8215 21.1785C13.5089 20.866 13.3333 20.442 13.3333 20C13.3333 19.558 13.5089 19.1341 13.8215 18.8215C14.134 18.5089 14.558 18.3333 15 18.3333H29.31L27.155 16.1783C26.8425 15.8658 26.667 15.4419 26.667 15C26.667 14.5581 26.8425 14.1342 27.155 13.8217V13.8217Z" fill="#2D5063"/>
</svg>
