<svg width="12" height="12" viewBox="0 0 12 12" fill="none" xmlns="http://www.w3.org/2000/svg">
<path d="M3.13161 12C2.28833 12 1.49854 11.6602 0.928525 11.1183C-0.176931 10.0677 -0.484763 8.234 1.06483 6.76152L7.42235 0.718524C8.06671 0.106266 8.88651 -0.130678 9.67109 0.0695303C10.4426 0.265453 11.0739 0.866079 11.2807 1.59895C11.4907 2.34591 11.2422 3.12531 10.5985 3.73757L4.51816 9.51729C4.1712 9.8473 3.77858 10.0426 3.38466 10.0818C2.994 10.121 2.6216 10.0022 2.36073 9.75424C1.88854 9.30361 1.82072 8.45809 2.60725 7.71113L6.87777 3.65185C7.05321 3.48532 7.33756 3.48532 7.513 3.65185C7.68844 3.81839 7.68844 4.08901 7.513 4.25554L3.24183 8.31543C2.87269 8.66564 2.83878 9.00055 2.99596 9.15055C3.06509 9.21545 3.16944 9.24545 3.29009 9.23259C3.47466 9.21484 3.68532 9.10034 3.88293 8.9136L9.96327 3.1345C10.3807 2.73775 10.5405 2.27121 10.4133 1.8212C10.3497 1.60114 10.2267 1.40023 10.0561 1.23793C9.88546 1.07564 9.67311 0.95746 9.43956 0.894855C8.96607 0.77424 8.47432 0.926692 8.05692 1.32344L1.69941 7.36643C0.515039 8.49237 0.79874 9.78852 1.5631 10.5153C2.32812 11.242 3.69054 11.5126 4.87556 10.3855L11.2331 4.34248C11.2745 4.3029 11.324 4.27147 11.3785 4.25001C11.433 4.22856 11.4916 4.2175 11.5507 4.2175C11.6098 4.2175 11.6684 4.22856 11.7229 4.25001C11.7774 4.27147 11.8268 4.3029 11.8683 4.34248C11.9527 4.42309 12 4.5316 12 4.64463C12 4.75766 11.9527 4.86617 11.8683 4.94678L5.51079 10.9898C4.76143 11.7012 3.92206 12 3.13161 12Z" fill="#2D5063"/>
</svg>
