<svg width="16" height="16" viewBox="0 0 16 16" fill="none" xmlns="http://www.w3.org/2000/svg">
<path d="M7.64576 4.03532H4.54689C4.21941 4.03522 3.89984 4.1359 3.63156 4.32369C3.36328 4.51149 3.1593 4.7773 3.0473 5.08502L0.0481347 13.3343C-0.0579528 13.6255 0.0146333 13.9517 0.23319 14.1711L0.466901 14.4048L5.58941 9.28226C5.58862 9.26152 5.58303 9.24078 5.58303 9.22005C5.58303 8.9834 5.65321 8.75208 5.78468 8.55532C5.91615 8.35856 6.10301 8.2052 6.32164 8.11465C6.54027 8.02409 6.78084 8.00039 7.01293 8.04656C7.24502 8.09272 7.45822 8.20668 7.62555 8.37401C7.79288 8.54134 7.90683 8.75453 7.953 8.98662C7.99916 9.21872 7.97547 9.45929 7.88491 9.67792C7.79435 9.89654 7.641 10.0834 7.44424 10.2149C7.24748 10.3463 7.01615 10.4165 6.77951 10.4165C6.75877 10.4165 6.73803 10.4109 6.71729 10.4101L1.59478 15.5327L1.82849 15.7664C1.93574 15.8739 2.07152 15.9484 2.2198 15.9812C2.36808 16.014 2.52264 16.0037 2.66523 15.9514L10.9145 12.9515C11.2223 12.8395 11.4881 12.6355 11.6759 12.3672C11.8637 12.0989 11.9643 11.7793 11.9642 11.4519V8.353L13.5587 6.75929L9.24026 2.44081L7.64576 4.03532ZM14.3085 5.68007L10.3203 1.69182L12.0113 0L15.9996 3.98825L14.3085 5.68007Z" fill="#94A6B0"/>
</svg>
