<svg width="40" height="40" viewBox="0 0 40 40" fill="none" xmlns="http://www.w3.org/2000/svg">
<path d="M30 4.99996H24.7C24 3.06663 22.1666 1.66663 20 1.66663C17.8333 1.66663 16 3.06663 15.3 4.99996H9.99996C8.16663 4.99996 6.66663 6.49996 6.66663 8.33329V33.3333C6.66663 35.1666 8.16663 36.6666 9.99996 36.6666H20.1833C19.1972 35.7095 18.3951 34.5797 17.8166 33.3333H9.99996V8.33329H13.3333V9.99996C13.3333 11.8333 14.8333 13.3333 16.6666 13.3333H23.3333C25.1666 13.3333 26.6666 11.8333 26.6666 9.99996V8.33329H30V16.8C31.1833 16.9666 32.3 17.3166 33.3333 17.8V8.33329C33.3333 6.49996 31.8333 4.99996 30 4.99996ZM20 8.33329C19.0833 8.33329 18.3333 7.58329 18.3333 6.66663C18.3333 5.74996 19.0833 4.99996 20 4.99996C20.9166 4.99996 21.6666 5.74996 21.6666 6.66663C21.6666 7.58329 20.9166 8.33329 20 8.33329ZM28.3333 20C23.7333 20 20 23.7333 20 28.3333C20 32.9333 23.7333 36.6666 28.3333 36.6666C32.9333 36.6666 36.6666 32.9333 36.6666 28.3333C36.6666 23.7333 32.9333 20 28.3333 20ZM30.4833 31.6666L27.7333 28.9166C27.5778 28.7618 27.4882 28.5527 27.4833 28.3333V24.1833C27.4833 23.7166 27.85 23.35 28.3166 23.35C28.7833 23.35 29.15 23.7166 29.15 24.1833V28L31.65 30.5C31.7278 30.5763 31.7898 30.6673 31.8323 30.7677C31.8748 30.8681 31.897 30.976 31.8975 31.085C31.8981 31.1941 31.877 31.3021 31.8355 31.403C31.794 31.5038 31.733 31.5954 31.6559 31.6725C31.5788 31.7497 31.4872 31.8107 31.3863 31.8522C31.2855 31.8937 31.1774 31.9147 31.0684 31.9142C30.9593 31.9136 30.8515 31.8915 30.751 31.849C30.6506 31.8065 30.5596 31.7445 30.4833 31.6666Z" fill="#13AAFF"/>
</svg>
