<svg width="32" height="32" viewBox="0 0 32 32" fill="none" xmlns="http://www.w3.org/2000/svg">
<path d="M24 4.00016H19.76C19.2 2.4535 17.7333 1.3335 16 1.3335C14.2667 1.3335 12.8 2.4535 12.24 4.00016H8.00001C6.53334 4.00016 5.33334 5.20016 5.33334 6.66683V26.6668C5.33334 28.1335 6.53334 29.3335 8.00001 29.3335H16.1467C15.3578 28.5678 14.7161 27.664 14.2533 26.6668H8.00001V6.66683H10.6667V8.00016C10.6667 9.46683 11.8667 10.6668 13.3333 10.6668H18.6667C20.1333 10.6668 21.3333 9.46683 21.3333 8.00016V6.66683H24V13.4402C24.9467 13.5735 25.84 13.8535 26.6667 14.2402V6.66683C26.6667 5.20016 25.4667 4.00016 24 4.00016ZM16 6.66683C15.2667 6.66683 14.6667 6.06683 14.6667 5.3335C14.6667 4.60016 15.2667 4.00016 16 4.00016C16.7333 4.00016 17.3333 4.60016 17.3333 5.3335C17.3333 6.06683 16.7333 6.66683 16 6.66683ZM22.6667 16.0002C18.9867 16.0002 16 18.9868 16 22.6668C16 26.3468 18.9867 29.3335 22.6667 29.3335C26.3467 29.3335 29.3333 26.3468 29.3333 22.6668C29.3333 18.9868 26.3467 16.0002 22.6667 16.0002ZM24.3867 25.3335L22.1867 23.1335C22.0623 23.0096 21.9906 22.8424 21.9867 22.6668V19.3468C21.9867 18.9735 22.28 18.6802 22.6533 18.6802C23.0267 18.6802 23.32 18.9735 23.32 19.3468V22.4002L25.32 24.4002C25.3823 24.4612 25.4319 24.534 25.4659 24.6144C25.4999 24.6947 25.5176 24.781 25.518 24.8682C25.5185 24.9554 25.5016 25.0419 25.4685 25.1226C25.4353 25.2033 25.3864 25.2766 25.3247 25.3382C25.2631 25.3999 25.1898 25.4488 25.1091 25.4819C25.0284 25.5151 24.942 25.532 24.8547 25.5315C24.7675 25.5311 24.6812 25.5134 24.6009 25.4794C24.5205 25.4454 24.4477 25.3958 24.3867 25.3335Z" fill="#2D5063"/>
</svg>
