<svg width="40" height="40" viewBox="0 0 40 40" fill="none" xmlns="http://www.w3.org/2000/svg">
<path d="M37.5 13.75C37.5 15.2274 37.209 16.6903 36.6436 18.0552C36.0783 19.4201 35.2496 20.6603 34.205 21.705C33.1603 22.7496 31.9201 23.5783 30.5552 24.1436C29.1903 24.709 27.7274 25 26.25 25C24.7726 25 23.3097 24.709 21.9448 24.1436C20.5799 23.5783 19.3397 22.7496 18.295 21.705C17.2504 20.6603 16.4217 19.4201 15.8564 18.0552C15.291 16.6903 15 15.2274 15 13.75C15 10.7663 16.1853 7.90483 18.295 5.79505C20.4048 3.68526 23.2663 2.5 26.25 2.5C29.2337 2.5 32.0952 3.68526 34.205 5.79505C36.3147 7.90483 37.5 10.7663 37.5 13.75V13.75ZM27.5 8.75C27.5 8.41848 27.3683 8.10054 27.1339 7.86612C26.8995 7.6317 26.5815 7.5 26.25 7.5C25.9185 7.5 25.6005 7.6317 25.3661 7.86612C25.1317 8.10054 25 8.41848 25 8.75V12.5H21.25C20.9185 12.5 20.6005 12.6317 20.3661 12.8661C20.1317 13.1005 20 13.4185 20 13.75C20 14.0815 20.1317 14.3995 20.3661 14.6339C20.6005 14.8683 20.9185 15 21.25 15H25V18.75C25 19.0815 25.1317 19.3995 25.3661 19.6339C25.6005 19.8683 25.9185 20 26.25 20C26.5815 20 26.8995 19.8683 27.1339 19.6339C27.3683 19.3995 27.5 19.0815 27.5 18.75V15H31.25C31.5815 15 31.8995 14.8683 32.1339 14.6339C32.3683 14.3995 32.5 14.0815 32.5 13.75C32.5 13.4185 32.3683 13.1005 32.1339 12.8661C31.8995 12.6317 31.5815 12.5 31.25 12.5H27.5V8.75ZM26.25 27.5C29.575 27.5 32.625 26.32 35 24.3575V31.25C35 32.9076 34.3415 34.4973 33.1694 35.6694C31.9973 36.8415 30.4076 37.5 28.75 37.5H11.25C9.5924 37.5 8.00269 36.8415 6.83058 35.6694C5.65848 34.4973 5 32.9076 5 31.25V13.75C5 12.0924 5.65848 10.5027 6.83058 9.33058C8.00269 8.15848 9.5924 7.5 11.25 7.5H14C13.5911 8.29902 13.2621 9.13641 13.0175 10H11.25C10.2554 10 9.30161 10.3951 8.59835 11.0983C7.89509 11.8016 7.5 12.7554 7.5 13.75V22.5H13.75C14.0815 22.5 14.3995 22.6317 14.6339 22.8661C14.8683 23.1005 15 23.4185 15 23.75C15 23.88 15.02 24.155 15.08 24.52C15.1825 25.1375 15.3675 25.755 15.65 26.315C16.42 27.86 17.7575 28.75 20 28.75C21.73 28.75 22.92 28.22 23.73 27.27C24.545 27.42 25.3875 27.5 26.25 27.5Z" fill="#2D5063"/>
</svg>
