<svg width="32" height="32" viewBox="0 0 32 32" fill="none" xmlns="http://www.w3.org/2000/svg">
<path d="M22.966 4.86768L16 11.8341C13.6781 9.51298 11.3554 7.18958 9.03313 4.86768C6.34666 2.18121 2.18245 6.34692 4.86667 9.03414C7.18932 11.3545 9.51272 13.6783 11.8328 16.0002C9.51166 18.3232 7.18963 20.6452 4.86667 22.9663C2.18245 25.652 6.34704 29.8166 9.03313 27.1328C11.355 24.8101 13.6777 22.4871 15.9996 20.1659L22.9657 27.1328C25.6521 29.8185 29.8175 25.6524 27.1321 22.9663C24.8095 20.6437 22.4876 18.3217 20.1642 15.9995C22.4872 13.6768 24.8091 11.3542 27.1321 9.03189C29.8178 6.34692 25.6525 2.18121 22.9657 4.86917" fill="#2D5063"/>
</svg>
