<svg width="40" height="40" viewBox="0 0 40 40" fill="none" xmlns="http://www.w3.org/2000/svg">
<path d="M14.6355 4.48507C14.987 3.77921 15.7097 3.33337 16.4974 3.33337H24.336C25.1237 3.33337 25.8464 3.77921 26.198 4.48507L26.6667 5.41671H32.9167C34.0691 5.41671 35 6.34965 35 7.50004C35 8.65043 34.0691 9.58337 32.9167 9.58337H7.91671C6.76632 9.58337 5.83337 8.65043 5.83337 7.50004C5.83337 6.34965 6.76632 5.41671 7.91671 5.41671H14.1667L14.6355 4.48507V4.48507ZM31.5365 33.6784C31.4323 35.3842 30.0717 36.6667 28.418 36.6667H12.4154C10.765 36.6667 9.39913 35.3842 9.29626 33.6784L7.85811 11.6667H32.9167L31.5365 33.6784Z" fill="#2D5063"/>
</svg>
