<svg width="40" height="40" viewBox="0 0 40 40" fill="none" xmlns="http://www.w3.org/2000/svg">
<path d="M32.2408 24.3258L35.6708 26.0418C36.1108 26.2618 36.1108 26.8898 35.6708 27.1098L20.5348 34.6798C20.369 34.7626 20.1862 34.8057 20.0008 34.8057C19.8155 34.8057 19.6327 34.7626 19.4668 34.6798L4.33083 27.1098C4.23195 27.06 4.14886 26.9837 4.0908 26.8894C4.03274 26.7951 4.00199 26.6866 4.00199 26.5758C4.00199 26.4651 4.03274 26.3566 4.0908 26.2623C4.14886 26.168 4.23195 26.0917 4.33083 26.0418L7.76283 24.3258L18.3968 29.6438C19.4068 30.1478 20.5968 30.1478 21.6048 29.6438L32.2388 24.3238L32.2408 24.3258ZM19.4668 4.12583C19.6327 4.04308 19.8155 4 20.0008 4C20.1862 4 20.369 4.04308 20.5348 4.12583L35.6708 11.6938C35.7696 11.744 35.8526 11.8205 35.9106 11.915C35.9685 12.0094 35.9992 12.118 35.9992 12.2288C35.9992 12.3396 35.9685 12.4483 35.9106 12.5427C35.8526 12.6371 35.7696 12.7137 35.6708 12.7638L20.5348 20.3298C20.369 20.4126 20.1862 20.4557 20.0008 20.4557C19.8155 20.4557 19.6327 20.4126 19.4668 20.3298L4.33083 12.7638C4.23143 12.7142 4.14782 12.6378 4.08939 12.5433C4.03095 12.4488 4 12.3399 4 12.2288C4 12.1177 4.03095 12.0088 4.08939 11.9143C4.14782 11.8198 4.23143 11.7435 4.33083 11.6938L19.4668 4.12583Z" fill="#FCFCFC"/>
<path d="M32.2407 17.1519L35.6707 18.8679C36.1107 19.0879 36.1107 19.7159 35.6707 19.9359L20.5347 27.5039C20.3688 27.5866 20.186 27.6297 20.0007 27.6297C19.8153 27.6297 19.6325 27.5866 19.4667 27.5039L4.33067 19.9359C4.23179 19.886 4.14869 19.8097 4.09063 19.7154C4.03257 19.6211 4.00183 19.5126 4.00183 19.4019C4.00183 19.2911 4.03257 19.1826 4.09063 19.0883C4.14869 18.994 4.23179 18.9177 4.33067 18.8679L7.76267 17.1519L18.3967 22.4699C19.4067 22.9739 20.5967 22.9739 21.6047 22.4699L32.2387 17.1519H32.2407Z" fill="#FCFCFC"/>
</svg>
