<svg width="10" height="10" viewBox="0 0 10 10" fill="none" xmlns="http://www.w3.org/2000/svg">
<path fill-rule="evenodd" clip-rule="evenodd" d="M6.22324 0.0246102C6.31267 -0.0061381 6.40945 -0.00812272 6.50007 0.0189337C6.59068 0.0459902 6.67059 0.100736 6.72863 0.175518L9.90435 4.2664C9.9663 4.34619 9.99994 4.4444 9.99994 4.54549C9.99994 4.64658 9.9663 4.74479 9.90435 4.82458L6.72863 8.91547C6.67057 8.99017 6.59067 9.04484 6.5001 9.07185C6.40952 9.09886 6.31279 9.09686 6.22341 9.06612C6.13403 9.03539 6.05645 8.97745 6.00152 8.90041C5.94659 8.82337 5.91704 8.73106 5.91701 8.63638V6.82275C3.47669 6.87366 2.3044 7.33775 1.71553 7.84229C1.15569 8.32183 1.05316 8.88592 0.946551 9.47683L0.918877 9.6291C0.898518 9.73805 0.839121 9.8358 0.751861 9.90395C0.664601 9.9721 0.555492 10.006 0.445062 9.99914C0.334633 9.99233 0.230494 9.94532 0.15224 9.86695C0.0739851 9.78859 0.0270084 9.68428 0.0201477 9.57364C-0.0578843 8.32456 0.0591637 6.51457 0.939746 5.00049C1.79447 3.53095 3.33333 2.40096 5.91701 2.28278V0.454608C5.91698 0.359904 5.94648 0.267556 6.00138 0.190465C6.05628 0.113374 6.13385 0.055389 6.22324 0.0246102Z" fill="#1E90FF"/>
</svg>
