<svg width="10" height="10" viewBox="0 0 10 10" fill="none" xmlns="http://www.w3.org/2000/svg">
<path d="M7.77778 0.952381H6.01111C5.77778 0.4 5.16667 0 4.44444 0C3.72222 0 3.11111 0.4 2.87778 0.952381H1.11111C0.5 0.952381 0 1.38095 0 1.90476V9.04762C0 9.57143 0.5 10 1.11111 10H4.50556C4.17687 9.72655 3.90949 9.40375 3.71667 9.04762H1.11111V1.90476H2.22222V2.38095C2.22222 2.90476 2.72222 3.33333 3.33333 3.33333H5.55556C6.16667 3.33333 6.66667 2.90476 6.66667 2.38095V1.90476H7.77778V4.32381C8.17222 4.37143 8.54445 4.47143 8.88889 4.60952V1.90476C8.88889 1.38095 8.38889 0.952381 7.77778 0.952381ZM4.44444 1.90476C4.13889 1.90476 3.88889 1.69048 3.88889 1.42857C3.88889 1.16667 4.13889 0.952381 4.44444 0.952381C4.75 0.952381 5 1.16667 5 1.42857C5 1.69048 4.75 1.90476 4.44444 1.90476ZM7.22222 5.2381C5.68889 5.2381 4.44444 6.30476 4.44444 7.61905C4.44444 8.93333 5.68889 10 7.22222 10C8.75556 10 10 8.93333 10 7.61905C10 6.30476 8.75556 5.2381 7.22222 5.2381ZM7.93889 8.57143L7.02222 7.78571C6.97038 7.74146 6.94052 7.68174 6.93889 7.61905V6.43333C6.93889 6.3 7.06111 6.19524 7.21667 6.19524C7.37222 6.19524 7.49444 6.3 7.49444 6.43333V7.52381L8.32778 8.2381C8.35374 8.2599 8.3744 8.2859 8.38856 8.31459C8.40272 8.34329 8.41011 8.3741 8.41029 8.40526C8.41048 8.43641 8.40345 8.46729 8.38963 8.4961C8.37581 8.52491 8.35545 8.55109 8.32975 8.57312C8.30405 8.59515 8.27351 8.61259 8.23989 8.62444C8.20628 8.63629 8.17026 8.64231 8.13391 8.64216C8.09756 8.642 8.06161 8.63567 8.02814 8.62353C7.99466 8.61139 7.96433 8.59368 7.93889 8.57143Z" fill="#45758F"/>
</svg>
