<svg width="16" height="16" viewBox="0 0 16 16" fill="none" xmlns="http://www.w3.org/2000/svg">
<path d="M7.99992 10.6668C8.70716 10.6668 9.38544 10.3859 9.88554 9.88578C10.3856 9.38568 10.6666 8.70741 10.6666 8.00016C10.6666 7.29292 10.3856 6.61464 9.88554 6.11454C9.38544 5.61445 8.70716 5.3335 7.99992 5.3335C7.29267 5.3335 6.6144 5.61445 6.1143 6.11454C5.6142 6.61464 5.33325 7.29292 5.33325 8.00016C5.33325 8.70741 5.6142 9.38568 6.1143 9.88578C6.6144 10.3859 7.29267 10.6668 7.99992 10.6668Z" fill="#2D5063"/>
<path fill-rule="evenodd" clip-rule="evenodd" d="M8 0C8.23575 0 8.46184 0.0936505 8.62854 0.260349C8.79524 0.427048 8.88889 0.653141 8.88889 0.888889V1.84C10.2186 2.0322 11.4505 2.64942 12.4005 3.59945C13.3506 4.54949 13.9678 5.78137 14.16 7.11111H15.1111C15.3469 7.11111 15.573 7.20476 15.7397 7.37146C15.9064 7.53816 16 7.76425 16 8C16 8.23575 15.9064 8.46184 15.7397 8.62854C15.573 8.79524 15.3469 8.88889 15.1111 8.88889H14.16C13.9678 10.2186 13.3506 11.4505 12.4005 12.4005C11.4505 13.3506 10.2186 13.9678 8.88889 14.16V15.1111C8.88889 15.3469 8.79524 15.573 8.62854 15.7397C8.46184 15.9064 8.23575 16 8 16C7.76425 16 7.53816 15.9064 7.37146 15.7397C7.20476 15.573 7.11111 15.3469 7.11111 15.1111V14.16C5.78137 13.9678 4.54949 13.3506 3.59945 12.4005C2.64942 11.4505 2.0322 10.2186 1.84 8.88889H0.888889C0.653141 8.88889 0.427048 8.79524 0.260349 8.62854C0.0936505 8.46184 0 8.23575 0 8C0 7.76425 0.0936505 7.53816 0.260349 7.37146C0.427048 7.20476 0.653141 7.11111 0.888889 7.11111H1.84C2.03234 5.78143 2.6496 4.54962 3.59961 3.59961C4.54962 2.6496 5.78143 2.03234 7.11111 1.84V0.888889C7.11111 0.653141 7.20476 0.427048 7.37146 0.260349C7.53816 0.0936505 7.76425 0 8 0V0ZM3.55556 8C3.55556 6.82126 4.02381 5.6908 4.8573 4.8573C5.6908 4.02381 6.82126 3.55556 8 3.55556C9.17874 3.55556 10.3092 4.02381 11.1427 4.8573C11.9762 5.6908 12.4444 6.82126 12.4444 8C12.4444 9.17874 11.9762 10.3092 11.1427 11.1427C10.3092 11.9762 9.17874 12.4444 8 12.4444C6.82126 12.4444 5.6908 11.9762 4.8573 11.1427C4.02381 10.3092 3.55556 9.17874 3.55556 8V8Z" fill="#2D5063"/>
</svg>
